# xmcd
#
# Track frame offsets: 
#        150
#        12912
#        26517
#        39872
#        52862
#        66365
#        79220
#        91225
#        102002
#        114812
#        126965
#        139642
#        151315
#        163235
#
# Disc length: 2350 seconds
#
# Revision: 2
# Processed by: cddbd v1.5.1PL0 Copyright (c) Steve Scherf et al.
# Submitted via: ExactAudioCopy v0.95a4
#
DISCID=a4092c0e
DTITLE=Bukka White - The Complete Bukka White
DYEAR=1994
DGENRE=Blues
TTITLE0=Pinebluff, Arkansas
TTITLE1=Shake' Em On Down
TTITLE2=Black Train Blues
TTITLE3=Strange Place Blues
TTITLE4=When Can I Change My Clothes?
TTITLE5=Sleepy Man Blues
TTITLE6=Parchman Farm Blues
TTITLE7=Good Gin Blues
TTITLE8=High Fever Blues
TTITLE9=District Attorney Blues
TTITLE10=Fixin' To Die Blues
TTITLE11=Aberdeen Mississippi Blues
TTITLE12=Bukka's Jitterbug Swing
TTITLE13=Special Streamline
EXTD=
EXTT0=
EXTT1=
EXTT2=
EXTT3=
EXTT4=
EXTT5=
EXTT6=
EXTT7=
EXTT8=
EXTT9=
EXTT10=
EXTT11=
EXTT12=
EXTT13=
PLAYORDER=
